<svg xmlns="http://www.w3.org/2000/svg" viewBox="0 0 400 300" role="img" aria-labelledby="ic59-ic63-ghosts-cassiopeia-title ic59-ic63-ghosts-cassiopeia-desc">
  <title id="ic59-ic63-ghosts-cassiopeia-title">IC 59 / IC 63 Ghosts of Cassiopeia</title>
  <desc id="ic59-ic63-ghosts-cassiopeia-desc">Original Project Polaris vector artwork informed by official NASA imagery: paired reflection/emission wisps near Gamma Cassiopeiae with cometary edges.</desc>
  <defs>
    <radialGradient id="ic59-ic63-ghosts-cassiopeia-glow" cx="50%" cy="48%" r="58%">
      <stop offset="0%" stop-color="#f3ead2" stop-opacity="0.9"/>
      <stop offset="52%" stop-color="#9ec9bf" stop-opacity="0.38"/>
      <stop offset="100%" stop-color="#1f5f60" stop-opacity="0"/>
    </radialGradient>
    <radialGradient id="ic59-ic63-ghosts-cassiopeia-ambient-edge-fade" cx="50%" cy="50%" r="72%">
      <stop offset="0%" stop-color="white" stop-opacity="1"/>
      <stop offset="64%" stop-color="white" stop-opacity="0.72"/>
      <stop offset="100%" stop-color="white" stop-opacity="0"/>
    </radialGradient>
    <mask id="ic59-ic63-ghosts-cassiopeia-ambient-vignette-mask" maskUnits="userSpaceOnUse" x="0" y="0" width="400" height="300">
      <rect width="400" height="300" fill="url(#ic59-ic63-ghosts-cassiopeia-ambient-edge-fade)"/>
    </mask>
    <clipPath id="ic59-ic63-ghosts-cassiopeia-disk"><circle cx="200" cy="150" r="62"/></clipPath>
  </defs>
  <g opacity="0.9" mask="url(#ic59-ic63-ghosts-cassiopeia-ambient-vignette-mask)">
    <circle cx="89" cy="125" r="1.25" fill="#f3ead2" opacity="0.35"/>
    <circle cx="183" cy="267" r="0.75" fill="#f3ead2" opacity="0.51"/>
    <circle cx="277" cy="145" r="1.25" fill="#f3ead2" opacity="0.67"/>
    <circle cx="324" cy="216" r="0.55" fill="#f3ead2" opacity="0.35"/>
    <circle cx="371" cy="23" r="0.75" fill="#f3ead2" opacity="0.43"/>
    <circle cx="54" cy="94" r="0.95" fill="#f3ead2" opacity="0.51"/>
    <circle cx="101" cy="165" r="1.25" fill="#f3ead2" opacity="0.59"/>
    <circle cx="148" cy="236" r="0.55" fill="#f3ead2" opacity="0.67"/>
    <circle cx="195" cy="43" r="0.75" fill="#f3ead2" opacity="0.35"/>
    <circle cx="289" cy="185" r="1.25" fill="#f3ead2" opacity="0.51"/>
    <circle cx="336" cy="256" r="0.55" fill="#f3ead2" opacity="0.59"/>
    <circle cx="19" cy="63" r="0.75" fill="#f3ead2" opacity="0.67"/>
    <circle cx="66" cy="134" r="0.95" fill="#f3ead2" opacity="0.35"/>
    <circle cx="113" cy="205" r="1.25" fill="#f3ead2" opacity="0.43"/>
    <circle cx="160" cy="276" r="0.55" fill="#f3ead2" opacity="0.51"/>
    <circle cx="301" cy="225" r="1.25" fill="#f3ead2" opacity="0.35"/>
    <circle cx="348" cy="32" r="0.55" fill="#f3ead2" opacity="0.43"/>
    <circle cx="31" cy="103" r="0.75" fill="#f3ead2" opacity="0.51"/>
    <circle cx="78" cy="174" r="0.95" fill="#f3ead2" opacity="0.59"/>
    <circle cx="125" cy="245" r="1.25" fill="#f3ead2" opacity="0.67"/>
    <circle cx="172" cy="52" r="0.55" fill="#f3ead2" opacity="0.35"/>
    <circle cx="313" cy="265" r="1.25" fill="#f3ead2" opacity="0.59"/>
    <circle cx="360" cy="72" r="0.55" fill="#f3ead2" opacity="0.67"/>
    <circle cx="43" cy="143" r="0.75" fill="#f3ead2" opacity="0.35"/>
    <circle cx="90" cy="214" r="0.95" fill="#f3ead2" opacity="0.43"/>
    <circle cx="137" cy="21" r="1.25" fill="#f3ead2" opacity="0.51"/>
  </g>
  <g>
    <path d="M170 210 C182 154 216 100 249 128 C224 152 213 190 170 210Z" fill="#9ec9bf" opacity=".32"/><path d="M160 218 C186 173 206 137 244 108" stroke="#102a2c" stroke-width="9" opacity=".52" fill="none"/><circle cx="226" cy="124" r="3" fill="#f3ead2" opacity="0.86"/>
  </g>
</svg>
