<svg xmlns="http://www.w3.org/2000/svg" viewBox="0 0 400 300" role="img" aria-labelledby="ldn1251-rotten-fish-title ldn1251-rotten-fish-desc">
  <title id="ldn1251-rotten-fish-title">LDN 1251 Dark Nebula</title>
  <desc id="ldn1251-rotten-fish-desc">Original Project Polaris vector artwork informed by official NASA imagery: ragged dark nebula with head-tail shape against sparse star field.</desc>
  <defs>
    <radialGradient id="ldn1251-rotten-fish-glow" cx="50%" cy="48%" r="58%">
      <stop offset="0%" stop-color="#f3ead2" stop-opacity="0.9"/>
      <stop offset="52%" stop-color="#9ec9bf" stop-opacity="0.38"/>
      <stop offset="100%" stop-color="#1f5f60" stop-opacity="0"/>
    </radialGradient>
    <radialGradient id="ldn1251-rotten-fish-ambient-edge-fade" cx="50%" cy="50%" r="72%">
      <stop offset="0%" stop-color="white" stop-opacity="1"/>
      <stop offset="64%" stop-color="white" stop-opacity="0.72"/>
      <stop offset="100%" stop-color="white" stop-opacity="0"/>
    </radialGradient>
    <mask id="ldn1251-rotten-fish-ambient-vignette-mask" maskUnits="userSpaceOnUse" x="0" y="0" width="400" height="300">
      <rect width="400" height="300" fill="url(#ldn1251-rotten-fish-ambient-edge-fade)"/>
    </mask>
    <clipPath id="ldn1251-rotten-fish-disk"><circle cx="200" cy="150" r="62"/></clipPath>
  </defs>
  <g opacity="0.9" mask="url(#ldn1251-rotten-fish-ambient-vignette-mask)">
    <circle cx="214" cy="238" r="0.55" fill="#f3ead2" opacity="0.35"/>
    <circle cx="261" cy="45" r="0.75" fill="#f3ead2" opacity="0.43"/>
    <circle cx="308" cy="116" r="0.95" fill="#f3ead2" opacity="0.51"/>
    <circle cx="355" cy="187" r="1.25" fill="#d49a3a" opacity="0.59"/>
    <circle cx="38" cy="258" r="0.55" fill="#f3ead2" opacity="0.67"/>
    <circle cx="85" cy="65" r="0.75" fill="#f3ead2" opacity="0.35"/>
    <circle cx="226" cy="278" r="0.55" fill="#f3ead2" opacity="0.59"/>
    <circle cx="320" cy="156" r="0.95" fill="#f3ead2" opacity="0.35"/>
    <circle cx="367" cy="227" r="1.25" fill="#f3ead2" opacity="0.43"/>
    <circle cx="50" cy="34" r="0.55" fill="#f3ead2" opacity="0.51"/>
    <circle cx="97" cy="105" r="0.75" fill="#f3ead2" opacity="0.59"/>
    <circle cx="191" cy="247" r="1.25" fill="#f3ead2" opacity="0.35"/>
    <circle cx="238" cy="54" r="0.55" fill="#f3ead2" opacity="0.43"/>
    <circle cx="285" cy="125" r="0.75" fill="#f3ead2" opacity="0.51"/>
    <circle cx="332" cy="196" r="0.95" fill="#f3ead2" opacity="0.59"/>
    <circle cx="379" cy="267" r="1.25" fill="#d49a3a" opacity="0.67"/>
    <circle cx="62" cy="74" r="0.55" fill="#f3ead2" opacity="0.35"/>
    <circle cx="109" cy="145" r="0.75" fill="#f3ead2" opacity="0.43"/>
    <circle cx="203" cy="23" r="1.25" fill="#f3ead2" opacity="0.59"/>
    <circle cx="250" cy="94" r="0.55" fill="#f3ead2" opacity="0.67"/>
    <circle cx="297" cy="165" r="0.75" fill="#f3ead2" opacity="0.35"/>
    <circle cx="344" cy="236" r="0.95" fill="#f3ead2" opacity="0.43"/>
    <circle cx="27" cy="43" r="1.25" fill="#f3ead2" opacity="0.51"/>
    <circle cx="74" cy="114" r="0.55" fill="#f3ead2" opacity="0.59"/>
    <circle cx="121" cy="185" r="0.75" fill="#f3ead2" opacity="0.67"/>
    <circle cx="168" cy="256" r="0.95" fill="#f3ead2" opacity="0.35"/>
    <circle cx="215" cy="63" r="1.25" fill="#f3ead2" opacity="0.43"/>
    <circle cx="262" cy="134" r="0.55" fill="#f3ead2" opacity="0.51"/>
    <circle cx="309" cy="205" r="0.75" fill="#f3ead2" opacity="0.59"/>
  </g>
  <g>
    <circle cx="200" cy="166" r="0.7" fill="#f3ead2" opacity="0.32"/><circle cx="237" cy="219" r="0.95" fill="#f3ead2" opacity="0.39"/><circle cx="274" cy="126" r="1.2" fill="#f3ead2" opacity="0.46"/><circle cx="111" cy="179" r="0.7" fill="#f3ead2" opacity="0.53"/><circle cx="148" cy="86" r="0.95" fill="#f3ead2" opacity="0.6000000000000001"/><circle cx="185" cy="139" r="1.2" fill="#f3ead2" opacity="0.32"/><circle cx="222" cy="192" r="0.7" fill="#f3ead2" opacity="0.39"/><circle cx="259" cy="99" r="0.95" fill="#f3ead2" opacity="0.46"/><circle cx="296" cy="152" r="1.2" fill="#f3ead2" opacity="0.53"/><circle cx="133" cy="205" r="0.7" fill="#f3ead2" opacity="0.6000000000000001"/><circle cx="170" cy="112" r="0.95" fill="#f3ead2" opacity="0.32"/><circle cx="207" cy="165" r="1.2" fill="#f3ead2" opacity="0.39"/><circle cx="244" cy="218" r="0.7" fill="#f3ead2" opacity="0.46"/><circle cx="281" cy="125" r="0.95" fill="#f3ead2" opacity="0.53"/><circle cx="118" cy="178" r="1.2" fill="#f3ead2" opacity="0.6000000000000001"/><circle cx="155" cy="85" r="0.7" fill="#f3ead2" opacity="0.32"/><circle cx="192" cy="138" r="0.95" fill="#f3ead2" opacity="0.39"/><circle cx="229" cy="191" r="1.2" fill="#f3ead2" opacity="0.46"/><circle cx="266" cy="98" r="0.7" fill="#f3ead2" opacity="0.53"/><circle cx="103" cy="151" r="0.95" fill="#f3ead2" opacity="0.6000000000000001"/><circle cx="140" cy="204" r="1.2" fill="#f3ead2" opacity="0.32"/><circle cx="177" cy="111" r="0.7" fill="#f3ead2" opacity="0.39"/><circle cx="214" cy="164" r="0.95" fill="#f3ead2" opacity="0.46"/><circle cx="251" cy="217" r="1.2" fill="#f3ead2" opacity="0.53"/><circle cx="288" cy="124" r="0.7" fill="#f3ead2" opacity="0.6000000000000001"/><circle cx="125" cy="177" r="0.95" fill="#f3ead2" opacity="0.32"/><circle cx="162" cy="84" r="1.2" fill="#f3ead2" opacity="0.39"/><circle cx="199" cy="137" r="0.7" fill="#f3ead2" opacity="0.46"/><circle cx="236" cy="190" r="0.95" fill="#f3ead2" opacity="0.53"/><circle cx="273" cy="97" r="1.2" fill="#f3ead2" opacity="0.6000000000000001"/><circle cx="110" cy="150" r="0.7" fill="#f3ead2" opacity="0.32"/><circle cx="147" cy="203" r="0.95" fill="#f3ead2" opacity="0.39"/><circle cx="184" cy="110" r="1.2" fill="#f3ead2" opacity="0.46"/><circle cx="221" cy="163" r="0.7" fill="#f3ead2" opacity="0.53"/><circle cx="258" cy="216" r="0.95" fill="#f3ead2" opacity="0.6000000000000001"/><circle cx="295" cy="123" r="1.2" fill="#f3ead2" opacity="0.32"/><path d="M82 176 C142 144 211 132 316 121" stroke="#102a2c" stroke-width="13" opacity=".72" fill="none" stroke-linecap="round"/>
  </g>
</svg>
