<svg xmlns="http://www.w3.org/2000/svg" viewBox="0 0 400 300" role="img" aria-labelledby="ngc1193-open-cluster-title ngc1193-open-cluster-desc">
  <title id="ngc1193-open-cluster-title">NGC 1193 Open Cluster</title>
  <desc id="ngc1193-open-cluster-desc">Original Project Polaris vector artwork informed by official NASA imagery: old Perseus open cluster with compact grain and sparse halo.</desc>
  <defs>
    <radialGradient id="ngc1193-open-cluster-glow" cx="50%" cy="48%" r="58%">
      <stop offset="0%" stop-color="#f3ead2" stop-opacity="0.9"/>
      <stop offset="52%" stop-color="#9ec9bf" stop-opacity="0.38"/>
      <stop offset="100%" stop-color="#1f5f60" stop-opacity="0"/>
    </radialGradient>
    <radialGradient id="ngc1193-open-cluster-ambient-edge-fade" cx="50%" cy="50%" r="72%">
      <stop offset="0%" stop-color="white" stop-opacity="1"/>
      <stop offset="64%" stop-color="white" stop-opacity="0.72"/>
      <stop offset="100%" stop-color="white" stop-opacity="0"/>
    </radialGradient>
    <mask id="ngc1193-open-cluster-ambient-vignette-mask" maskUnits="userSpaceOnUse" x="0" y="0" width="400" height="300">
      <rect width="400" height="300" fill="url(#ngc1193-open-cluster-ambient-edge-fade)"/>
    </mask>
    <clipPath id="ngc1193-open-cluster-disk"><circle cx="200" cy="150" r="62"/></clipPath>
  </defs>
  <g opacity="0.9" mask="url(#ngc1193-open-cluster-ambient-vignette-mask)">
    <circle cx="29" cy="177" r="1.25" fill="#f3ead2" opacity="0.35"/>
    <circle cx="76" cy="248" r="0.55" fill="#f3ead2" opacity="0.43"/>
    <circle cx="123" cy="55" r="0.75" fill="#f3ead2" opacity="0.51"/>
    <circle cx="217" cy="197" r="1.25" fill="#f3ead2" opacity="0.67"/>
    <circle cx="264" cy="268" r="0.55" fill="#f3ead2" opacity="0.35"/>
    <circle cx="311" cy="75" r="0.75" fill="#f3ead2" opacity="0.43"/>
    <circle cx="358" cy="146" r="0.95" fill="#f3ead2" opacity="0.51"/>
    <circle cx="41" cy="217" r="1.25" fill="#f3ead2" opacity="0.59"/>
    <circle cx="88" cy="24" r="0.55" fill="#f3ead2" opacity="0.67"/>
    <circle cx="229" cy="237" r="1.25" fill="#f3ead2" opacity="0.51"/>
    <circle cx="276" cy="44" r="0.55" fill="#f3ead2" opacity="0.59"/>
    <circle cx="323" cy="115" r="0.75" fill="#f3ead2" opacity="0.67"/>
    <circle cx="370" cy="186" r="0.95" fill="#f3ead2" opacity="0.35"/>
    <circle cx="53" cy="257" r="1.25" fill="#f3ead2" opacity="0.43"/>
    <circle cx="100" cy="64" r="0.55" fill="#f3ead2" opacity="0.51"/>
    <circle cx="241" cy="277" r="1.25" fill="#f3ead2" opacity="0.35"/>
    <circle cx="288" cy="84" r="0.55" fill="#f3ead2" opacity="0.43"/>
    <circle cx="335" cy="155" r="0.75" fill="#f3ead2" opacity="0.51"/>
    <circle cx="18" cy="226" r="0.95" fill="#f3ead2" opacity="0.59"/>
    <circle cx="65" cy="33" r="1.25" fill="#f3ead2" opacity="0.67"/>
    <circle cx="112" cy="104" r="0.55" fill="#f3ead2" opacity="0.35"/>
    <circle cx="206" cy="246" r="0.95" fill="#f3ead2" opacity="0.51"/>
    <circle cx="253" cy="53" r="1.25" fill="#f3ead2" opacity="0.59"/>
    <circle cx="300" cy="124" r="0.55" fill="#f3ead2" opacity="0.67"/>
    <circle cx="347" cy="195" r="0.75" fill="#f3ead2" opacity="0.35"/>
    <circle cx="30" cy="266" r="0.95" fill="#f3ead2" opacity="0.43"/>
    <circle cx="77" cy="73" r="1.25" fill="#f3ead2" opacity="0.51"/>
  </g>
  <g>
    <ellipse cx="203" cy="153" rx="47" ry="39" fill="url(#ngc1193-open-cluster-glow)" opacity=".38"/><circle cx="164" cy="116" r="0.5" fill="#f3ead2" opacity="0.2"/><circle cx="193" cy="157" r="0.67" fill="#f3ead2" opacity="0.25"/><circle cx="222" cy="120" r="0.8400000000000001" fill="#f3ead2" opacity="0.30000000000000004"/><circle cx="173" cy="161" r="0.5" fill="#f3ead2" opacity="0.35000000000000003"/><circle cx="202" cy="124" r="0.67" fill="#f3ead2" opacity="0.4"/><circle cx="231" cy="165" r="0.8400000000000001" fill="#f3ead2" opacity="0.2"/><circle cx="182" cy="128" r="0.5" fill="#f3ead2" opacity="0.25"/><circle cx="211" cy="169" r="0.67" fill="#f3ead2" opacity="0.30000000000000004"/><circle cx="240" cy="132" r="0.8400000000000001" fill="#f3ead2" opacity="0.35000000000000003"/><circle cx="191" cy="173" r="0.5" fill="#f3ead2" opacity="0.4"/><circle cx="220" cy="136" r="0.67" fill="#f3ead2" opacity="0.2"/><circle cx="171" cy="177" r="0.8400000000000001" fill="#f3ead2" opacity="0.25"/><circle cx="200" cy="140" r="0.5" fill="#f3ead2" opacity="0.30000000000000004"/><circle cx="229" cy="181" r="0.67" fill="#f3ead2" opacity="0.35000000000000003"/><circle cx="180" cy="144" r="0.8400000000000001" fill="#f3ead2" opacity="0.4"/><circle cx="209" cy="185" r="0.5" fill="#f3ead2" opacity="0.2"/><circle cx="238" cy="148" r="0.67" fill="#f3ead2" opacity="0.25"/><circle cx="189" cy="189" r="0.8400000000000001" fill="#f3ead2" opacity="0.30000000000000004"/><circle cx="218" cy="152" r="0.5" fill="#f3ead2" opacity="0.35000000000000003"/><circle cx="169" cy="193" r="0.67" fill="#f3ead2" opacity="0.4"/><circle cx="198" cy="156" r="0.8400000000000001" fill="#f3ead2" opacity="0.2"/><circle cx="227" cy="119" r="0.5" fill="#f3ead2" opacity="0.25"/><circle cx="178" cy="160" r="0.67" fill="#f3ead2" opacity="0.30000000000000004"/><circle cx="207" cy="123" r="0.8400000000000001" fill="#f3ead2" opacity="0.35000000000000003"/><circle cx="236" cy="164" r="0.5" fill="#f3ead2" opacity="0.4"/><circle cx="187" cy="127" r="0.67" fill="#f3ead2" opacity="0.2"/><circle cx="216" cy="168" r="0.8400000000000001" fill="#f3ead2" opacity="0.25"/><circle cx="167" cy="131" r="0.5" fill="#f3ead2" opacity="0.30000000000000004"/><circle cx="196" cy="172" r="0.67" fill="#f3ead2" opacity="0.35000000000000003"/><circle cx="225" cy="135" r="0.8400000000000001" fill="#f3ead2" opacity="0.4"/><path d="M183 137 L204 129 L226 143 L219 171 L190 177 L165 155" stroke="#9ec9bf" stroke-width="2" opacity=".18" fill="none"/><circle cx="183" cy="137" r="2.4" fill="#f3ead2" opacity="0.7"/><circle cx="204" cy="129" r="2.8" fill="#f3ead2" opacity="0.8"/><circle cx="226" cy="143" r="2.3" fill="#f3ead2" opacity="0.68"/><circle cx="219" cy="171" r="2.1" fill="#f3ead2" opacity="0.64"/><circle cx="190" cy="177" r="2" fill="#f3ead2" opacity="0.6"/><circle cx="165" cy="155" r="1.7" fill="#f3ead2" opacity="0.54"/><circle cx="241" cy="188" r="1.5" fill="#f3ead2" opacity="0.5"/>
  </g>
</svg>
