<svg xmlns="http://www.w3.org/2000/svg" viewBox="0 0 400 300" role="img" aria-labelledby="ngc1156-irregular-title ngc1156-irregular-desc">
  <title id="ngc1156-irregular-title">NGC 1156 Irregular Galaxy</title>
  <desc id="ngc1156-irregular-desc">Original Project Polaris vector artwork informed by official NASA imagery: isolated Magellanic irregular with clumpy knots and diffuse tilted body.</desc>
  <defs>
    <radialGradient id="ngc1156-irregular-glow" cx="50%" cy="48%" r="58%">
      <stop offset="0%" stop-color="#f3ead2" stop-opacity="0.9"/>
      <stop offset="52%" stop-color="#9ec9bf" stop-opacity="0.38"/>
      <stop offset="100%" stop-color="#1f5f60" stop-opacity="0"/>
    </radialGradient>
    <radialGradient id="ngc1156-irregular-ambient-edge-fade" cx="50%" cy="50%" r="72%">
      <stop offset="0%" stop-color="white" stop-opacity="1"/>
      <stop offset="64%" stop-color="white" stop-opacity="0.72"/>
      <stop offset="100%" stop-color="white" stop-opacity="0"/>
    </radialGradient>
    <mask id="ngc1156-irregular-ambient-vignette-mask" maskUnits="userSpaceOnUse" x="0" y="0" width="400" height="300">
      <rect width="400" height="300" fill="url(#ngc1156-irregular-ambient-edge-fade)"/>
    </mask>
    <clipPath id="ngc1156-irregular-disk"><circle cx="200" cy="150" r="62"/></clipPath>
  </defs>
  <g opacity="0.9" mask="url(#ngc1156-irregular-ambient-vignette-mask)">
    <circle cx="115" cy="155" r="0.75" fill="#f3ead2" opacity="0.35"/>
    <circle cx="209" cy="33" r="1.25" fill="#f3ead2" opacity="0.51"/>
    <circle cx="303" cy="175" r="0.75" fill="#f3ead2" opacity="0.67"/>
    <circle cx="350" cy="246" r="0.95" fill="#f3ead2" opacity="0.35"/>
    <circle cx="33" cy="53" r="1.25" fill="#f3ead2" opacity="0.43"/>
    <circle cx="80" cy="124" r="0.55" fill="#f3ead2" opacity="0.51"/>
    <circle cx="127" cy="195" r="0.75" fill="#f3ead2" opacity="0.59"/>
    <circle cx="174" cy="266" r="0.95" fill="#f3ead2" opacity="0.67"/>
    <circle cx="315" cy="215" r="0.75" fill="#f3ead2" opacity="0.51"/>
    <circle cx="362" cy="22" r="0.95" fill="#f3ead2" opacity="0.59"/>
    <circle cx="45" cy="93" r="1.25" fill="#f3ead2" opacity="0.67"/>
    <circle cx="92" cy="164" r="0.55" fill="#f3ead2" opacity="0.35"/>
    <circle cx="139" cy="235" r="0.75" fill="#f3ead2" opacity="0.43"/>
    <circle cx="186" cy="42" r="0.95" fill="#f3ead2" opacity="0.51"/>
    <circle cx="280" cy="184" r="0.55" fill="#d49a3a" opacity="0.67"/>
    <circle cx="327" cy="255" r="0.75" fill="#f3ead2" opacity="0.35"/>
    <circle cx="374" cy="62" r="0.95" fill="#f3ead2" opacity="0.43"/>
    <circle cx="57" cy="133" r="1.25" fill="#f3ead2" opacity="0.51"/>
    <circle cx="104" cy="204" r="0.55" fill="#f3ead2" opacity="0.59"/>
    <circle cx="151" cy="275" r="0.75" fill="#f3ead2" opacity="0.67"/>
    <circle cx="292" cy="224" r="0.55" fill="#f3ead2" opacity="0.51"/>
    <circle cx="339" cy="31" r="0.75" fill="#f3ead2" opacity="0.59"/>
    <circle cx="22" cy="102" r="0.95" fill="#f3ead2" opacity="0.67"/>
    <circle cx="69" cy="173" r="1.25" fill="#f3ead2" opacity="0.35"/>
    <circle cx="116" cy="244" r="0.55" fill="#f3ead2" opacity="0.43"/>
    <circle cx="163" cy="51" r="0.75" fill="#f3ead2" opacity="0.51"/>
  </g>
  <g>
    <path d="M109 161 L147 125 L219 119 L289 151 L255 188 L173 183 Z" fill="#9ec9bf" opacity="0.34"/><path d="M123 155 C173 137 235 140 280 159" stroke="#d8caa7" stroke-width="4" opacity=".36" fill="none"/><circle cx="163" cy="145" r="3" fill="#d49a3a" opacity="0.7"/><circle cx="225" cy="157" r="2.8" fill="#d49a3a" opacity="0.66"/><circle cx="259" cy="141" r="2.2" fill="#d49a3a" opacity="0.55"/>
  </g>
</svg>
