<svg xmlns="http://www.w3.org/2000/svg" viewBox="0 0 400 300" role="img" aria-labelledby="ngc2442-meathook-title ngc2442-meathook-desc">
  <title id="ngc2442-meathook-title">NGC 2442 Meathook Galaxy</title>
  <desc id="ngc2442-meathook-desc">Original Project Polaris vector artwork informed by official NASA imagery: strongly asymmetric barred spiral with hooked arm morphology.</desc>
  <defs>
    <radialGradient id="ngc2442-meathook-glow" cx="50%" cy="48%" r="58%">
      <stop offset="0%" stop-color="#f3ead2" stop-opacity="0.9"/>
      <stop offset="52%" stop-color="#9ec9bf" stop-opacity="0.38"/>
      <stop offset="100%" stop-color="#1f5f60" stop-opacity="0"/>
    </radialGradient>
    <radialGradient id="ngc2442-meathook-ambient-edge-fade" cx="50%" cy="50%" r="72%">
      <stop offset="0%" stop-color="white" stop-opacity="1"/>
      <stop offset="64%" stop-color="white" stop-opacity="0.72"/>
      <stop offset="100%" stop-color="white" stop-opacity="0"/>
    </radialGradient>
    <mask id="ngc2442-meathook-ambient-vignette-mask" maskUnits="userSpaceOnUse" x="0" y="0" width="400" height="300">
      <rect width="400" height="300" fill="url(#ngc2442-meathook-ambient-edge-fade)"/>
    </mask>
    <clipPath id="ngc2442-meathook-disk"><circle cx="200" cy="150" r="62"/></clipPath>
  </defs>
  <g opacity="0.9" mask="url(#ngc2442-meathook-ambient-vignette-mask)">
    <circle cx="22" cy="46" r="0.55" fill="#f3ead2" opacity="0.35"/>
    <circle cx="69" cy="117" r="0.75" fill="#f3ead2" opacity="0.43"/>
    <circle cx="116" cy="188" r="0.95" fill="#f3ead2" opacity="0.51"/>
    <circle cx="163" cy="259" r="1.25" fill="#d49a3a" opacity="0.59"/>
    <circle cx="210" cy="66" r="0.55" fill="#f3ead2" opacity="0.67"/>
    <circle cx="304" cy="208" r="0.95" fill="#f3ead2" opacity="0.43"/>
    <circle cx="351" cy="279" r="1.25" fill="#f3ead2" opacity="0.51"/>
    <circle cx="34" cy="86" r="0.55" fill="#f3ead2" opacity="0.59"/>
    <circle cx="81" cy="157" r="0.75" fill="#f3ead2" opacity="0.67"/>
    <circle cx="175" cy="35" r="1.25" fill="#f3ead2" opacity="0.43"/>
    <circle cx="222" cy="106" r="0.55" fill="#f3ead2" opacity="0.51"/>
    <circle cx="316" cy="248" r="0.95" fill="#f3ead2" opacity="0.67"/>
    <circle cx="363" cy="55" r="1.25" fill="#f3ead2" opacity="0.35"/>
    <circle cx="46" cy="126" r="0.55" fill="#f3ead2" opacity="0.43"/>
    <circle cx="93" cy="197" r="0.75" fill="#f3ead2" opacity="0.51"/>
    <circle cx="140" cy="268" r="0.95" fill="#f3ead2" opacity="0.59"/>
    <circle cx="234" cy="146" r="0.55" fill="#f3ead2" opacity="0.35"/>
    <circle cx="281" cy="217" r="0.75" fill="#f3ead2" opacity="0.43"/>
    <circle cx="328" cy="24" r="0.95" fill="#f3ead2" opacity="0.51"/>
    <circle cx="375" cy="95" r="1.25" fill="#f3ead2" opacity="0.59"/>
    <circle cx="58" cy="166" r="0.55" fill="#f3ead2" opacity="0.67"/>
    <circle cx="105" cy="237" r="0.75" fill="#f3ead2" opacity="0.35"/>
    <circle cx="152" cy="44" r="0.95" fill="#f3ead2" opacity="0.43"/>
    <circle cx="246" cy="186" r="0.55" fill="#f3ead2" opacity="0.59"/>
    <circle cx="293" cy="257" r="0.75" fill="#f3ead2" opacity="0.67"/>
    <circle cx="340" cy="64" r="0.95" fill="#f3ead2" opacity="0.35"/>
    <circle cx="23" cy="135" r="1.25" fill="#f3ead2" opacity="0.43"/>
    <circle cx="70" cy="206" r="0.55" fill="#f3ead2" opacity="0.51"/>
    <circle cx="117" cy="277" r="0.75" fill="#f3ead2" opacity="0.59"/>
  </g>
  <g>
    <circle cx="202" cy="144" r="12" fill="#f3ead2" opacity=".82"/><path d="M144 148 L260 140" stroke="#d8caa7" stroke-width="7" opacity=".62" stroke-linecap="round"/><ellipse cx="202" cy="144" rx="70" ry="42" fill="none" stroke="#d49a3a" stroke-width="3" opacity=".28"/><path d="M104.0 123.9 A104 60 0 0 1 303.9 132.1" fill="none" stroke="#9ec9bf" stroke-width="5" stroke-linecap="round" opacity="0.52"/><path d="M293.7 160.3 A96 55 0 0 1 115.2 167.5" fill="none" stroke="#2f8f8a" stroke-width="5" stroke-linecap="round" opacity="0.48"/><path d="M147.0 145.7 A55 40 0 0 1 230.2 109.6" fill="none" stroke="#d8caa7" stroke-width="4" stroke-linecap="round" opacity="0.45"/><path d="M217 128 C270 76 318 85 341 115" stroke="#d8caa7" stroke-width="5" opacity=".52" fill="none"/><circle cx="244" cy="117" r="3" fill="#d49a3a" opacity="0.68"/><circle cx="164" cy="173" r="2.6" fill="#d49a3a" opacity="0.62"/><circle cx="225" cy="186" r="2.2" fill="#d49a3a" opacity="0.56"/>
  </g>
</svg>
