<svg xmlns="http://www.w3.org/2000/svg" viewBox="0 0 400 300" role="img" aria-labelledby="ngc6642-globular-title ngc6642-globular-desc">
  <title id="ngc6642-globular-title">NGC 6642 Globular Cluster</title>
  <desc id="ngc6642-globular-desc">Original Project Polaris vector artwork informed by official NASA imagery: small compact globular near the Galactic center with tight core.</desc>
  <defs>
    <radialGradient id="ngc6642-globular-glow" cx="50%" cy="48%" r="58%">
      <stop offset="0%" stop-color="#f3ead2" stop-opacity="0.9"/>
      <stop offset="52%" stop-color="#9ec9bf" stop-opacity="0.38"/>
      <stop offset="100%" stop-color="#1f5f60" stop-opacity="0"/>
    </radialGradient>
    <radialGradient id="ngc6642-globular-ambient-edge-fade" cx="50%" cy="50%" r="72%">
      <stop offset="0%" stop-color="white" stop-opacity="1"/>
      <stop offset="64%" stop-color="white" stop-opacity="0.72"/>
      <stop offset="100%" stop-color="white" stop-opacity="0"/>
    </radialGradient>
    <mask id="ngc6642-globular-ambient-vignette-mask" maskUnits="userSpaceOnUse" x="0" y="0" width="400" height="300">
      <rect width="400" height="300" fill="url(#ngc6642-globular-ambient-edge-fade)"/>
    </mask>
    <clipPath id="ngc6642-globular-disk"><circle cx="200" cy="150" r="62"/></clipPath>
  </defs>
  <g opacity="0.9" mask="url(#ngc6642-globular-ambient-vignette-mask)">
    <circle cx="160" cy="232" r="0.95" fill="#f3ead2" opacity="0.35"/>
    <circle cx="207" cy="39" r="1.25" fill="#f3ead2" opacity="0.43"/>
    <circle cx="301" cy="181" r="0.75" fill="#d49a3a" opacity="0.59"/>
    <circle cx="348" cy="252" r="0.95" fill="#f3ead2" opacity="0.67"/>
    <circle cx="31" cy="59" r="1.25" fill="#f3ead2" opacity="0.35"/>
    <circle cx="78" cy="130" r="0.55" fill="#f3ead2" opacity="0.43"/>
    <circle cx="172" cy="272" r="0.95" fill="#f3ead2" opacity="0.59"/>
    <circle cx="313" cy="221" r="0.75" fill="#f3ead2" opacity="0.43"/>
    <circle cx="360" cy="28" r="0.95" fill="#f3ead2" opacity="0.51"/>
    <circle cx="43" cy="99" r="1.25" fill="#f3ead2" opacity="0.59"/>
    <circle cx="90" cy="170" r="0.55" fill="#f3ead2" opacity="0.67"/>
    <circle cx="137" cy="241" r="0.75" fill="#f3ead2" opacity="0.35"/>
    <circle cx="184" cy="48" r="0.95" fill="#f3ead2" opacity="0.43"/>
    <circle cx="278" cy="190" r="0.55" fill="#f3ead2" opacity="0.59"/>
    <circle cx="325" cy="261" r="0.75" fill="#d49a3a" opacity="0.67"/>
    <circle cx="372" cy="68" r="0.95" fill="#f3ead2" opacity="0.35"/>
    <circle cx="55" cy="139" r="1.25" fill="#f3ead2" opacity="0.43"/>
    <circle cx="102" cy="210" r="0.55" fill="#f3ead2" opacity="0.51"/>
    <circle cx="149" cy="281" r="0.75" fill="#f3ead2" opacity="0.59"/>
    <circle cx="196" cy="88" r="0.95" fill="#f3ead2" opacity="0.67"/>
    <circle cx="290" cy="230" r="0.55" fill="#f3ead2" opacity="0.43"/>
    <circle cx="337" cy="37" r="0.75" fill="#f3ead2" opacity="0.51"/>
    <circle cx="20" cy="108" r="0.95" fill="#f3ead2" opacity="0.59"/>
    <circle cx="67" cy="179" r="1.25" fill="#f3ead2" opacity="0.67"/>
    <circle cx="114" cy="250" r="0.55" fill="#f3ead2" opacity="0.35"/>
    <circle cx="161" cy="57" r="0.75" fill="#f3ead2" opacity="0.43"/>
    <circle cx="208" cy="128" r="0.95" fill="#f3ead2" opacity="0.51"/>
  </g>
  <g>
    <ellipse cx="201" cy="149" rx="38" ry="43" fill="url(#ngc6642-globular-glow)" opacity=".7"/><ellipse cx="201" cy="149" rx="13" ry="15" fill="#f3ead2" opacity=".6"/><circle cx="201" cy="149" r="0.55" fill="#f3ead2" opacity="0.24"/><circle cx="191" cy="157" r="0.73" fill="#f3ead2" opacity="0.295"/><circle cx="210" cy="121" r="0.91" fill="#f3ead2" opacity="0.35"/><circle cx="202" cy="155" r="1.09" fill="#f3ead2" opacity="0.405"/><circle cx="187" cy="136" r="0.55" fill="#f3ead2" opacity="0.45999999999999996"/><circle cx="232" cy="152" r="0.73" fill="#f3ead2" opacity="0.515"/><circle cx="192" cy="155" r="0.91" fill="#f3ead2" opacity="0.24"/><circle cx="211" cy="124" r="1.09" fill="#f3ead2" opacity="0.295"/><circle cx="201" cy="152" r="0.55" fill="#f3ead2" opacity="0.35"/><circle cx="190" cy="136" r="0.73" fill="#f3ead2" opacity="0.405"/><circle cx="230" cy="154" r="0.91" fill="#f3ead2" opacity="0.45999999999999996"/><circle cx="194" cy="153" r="1.09" fill="#f3ead2" opacity="0.515"/><circle cx="211" cy="128" r="0.55" fill="#f3ead2" opacity="0.24"/><circle cx="201" cy="149" r="0.73" fill="#f3ead2" opacity="0.295"/><circle cx="192" cy="137" r="0.91" fill="#f3ead2" opacity="0.35"/><circle cx="227" cy="156" r="1.09" fill="#f3ead2" opacity="0.405"/><circle cx="196" cy="151" r="0.55" fill="#f3ead2" opacity="0.45999999999999996"/><circle cx="211" cy="131" r="0.73" fill="#f3ead2" opacity="0.515"/><circle cx="201" cy="186" r="0.91" fill="#f3ead2" opacity="0.24"/><circle cx="195" cy="139" r="1.09" fill="#f3ead2" opacity="0.295"/><circle cx="224" cy="158" r="0.55" fill="#f3ead2" opacity="0.35"/><circle cx="198" cy="150" r="0.73" fill="#f3ead2" opacity="0.405"/><circle cx="211" cy="134" r="0.91" fill="#f3ead2" opacity="0.45999999999999996"/><circle cx="199" cy="184" r="1.09" fill="#f3ead2" opacity="0.515"/><circle cx="197" cy="140" r="0.55" fill="#f3ead2" opacity="0.24"/><circle cx="221" cy="159" r="0.73" fill="#f3ead2" opacity="0.295"/><circle cx="200" cy="149" r="0.91" fill="#f3ead2" opacity="0.35"/><circle cx="211" cy="137" r="1.09" fill="#f3ead2" opacity="0.405"/><circle cx="197" cy="181" r="0.55" fill="#f3ead2" opacity="0.45999999999999996"/><circle cx="198" cy="142" r="0.73" fill="#f3ead2" opacity="0.515"/><circle cx="218" cy="160" r="0.91" fill="#f3ead2" opacity="0.24"/><circle cx="168" cy="153" r="1.09" fill="#f3ead2" opacity="0.295"/><circle cx="210" cy="140" r="0.55" fill="#f3ead2" opacity="0.35"/><circle cx="195" cy="177" r="0.73" fill="#f3ead2" opacity="0.405"/><circle cx="200" cy="144" r="0.91" fill="#f3ead2" opacity="0.45999999999999996"/><circle cx="215" cy="160" r="1.09" fill="#f3ead2" opacity="0.515"/><circle cx="170" cy="149" r="0.55" fill="#f3ead2" opacity="0.24"/><circle cx="209" cy="143" r="0.73" fill="#f3ead2" opacity="0.295"/><circle cx="194" cy="174" r="0.91" fill="#f3ead2" opacity="0.35"/><circle cx="201" cy="147" r="1.09" fill="#f3ead2" opacity="0.405"/><circle cx="213" cy="160" r="0.55" fill="#f3ead2" opacity="0.45999999999999996"/><circle cx="173" cy="148" r="0.73" fill="#f3ead2" opacity="0.515"/><circle cx="207" cy="145" r="0.91" fill="#f3ead2" opacity="0.24"/><circle cx="193" cy="171" r="1.09" fill="#f3ead2" opacity="0.295"/><circle cx="201" cy="149" r="0.55" fill="#f3ead2" opacity="0.35"/><circle cx="210" cy="159" r="0.73" fill="#f3ead2" opacity="0.405"/><circle cx="175" cy="145" r="0.91" fill="#f3ead2" opacity="0.45999999999999996"/><circle cx="205" cy="147" r="1.09" fill="#f3ead2" opacity="0.515"/><circle cx="193" cy="168" r="0.55" fill="#f3ead2" opacity="0.24"/><circle cx="198" cy="113" r="0.73" fill="#f3ead2" opacity="0.295"/><circle cx="208" cy="158" r="0.91" fill="#f3ead2" opacity="0.35"/><circle cx="178" cy="143" r="1.09" fill="#f3ead2" opacity="0.405"/><circle cx="203" cy="148" r="0.55" fill="#f3ead2" opacity="0.45999999999999996"/><circle cx="193" cy="164" r="0.73" fill="#f3ead2" opacity="0.515"/><circle cx="200" cy="115" r="0.91" fill="#f3ead2" opacity="0.24"/><circle cx="206" cy="156" r="1.09" fill="#f3ead2" opacity="0.295"/><circle cx="181" cy="142" r="0.55" fill="#f3ead2" opacity="0.35"/><circle cx="201" cy="149" r="0.73" fill="#f3ead2" opacity="0.405"/><circle cx="193" cy="161" r="0.91" fill="#f3ead2" opacity="0.45999999999999996"/><circle cx="202" cy="118" r="1.09" fill="#f3ead2" opacity="0.515"/><circle cx="204" cy="155" r="0.55" fill="#f3ead2" opacity="0.24"/><circle cx="183" cy="141" r="0.73" fill="#f3ead2" opacity="0.295"/><circle cx="232" cy="141" r="0.91" fill="#f3ead2" opacity="0.35"/><circle cx="194" cy="158" r="1.09" fill="#f3ead2" opacity="0.405"/><circle cx="204" cy="121" r="0.55" fill="#f3ead2" opacity="0.45999999999999996"/><circle cx="202" cy="152" r="0.73" fill="#f3ead2" opacity="0.515"/><circle cx="186" cy="140" r="0.91" fill="#f3ead2" opacity="0.24"/><circle cx="231" cy="145" r="1.09" fill="#f3ead2" opacity="0.295"/><circle cx="195" cy="156" r="0.55" fill="#f3ead2" opacity="0.35"/><circle cx="205" cy="124" r="0.73" fill="#f3ead2" opacity="0.405"/><circle cx="201" cy="150" r="0.91" fill="#f3ead2" opacity="0.45999999999999996"/><circle cx="189" cy="140" r="1.09" fill="#f3ead2" opacity="0.515"/><circle cx="173" cy="123" r="1.1" fill="#d49a3a" opacity="0.42"/><circle cx="235" cy="180" r="1.1" fill="#d49a3a" opacity="0.42"/>
  </g>
</svg>
