<svg xmlns="http://www.w3.org/2000/svg" viewBox="0 0 400 300" role="img" aria-labelledby="ngc7128-open-cluster-title ngc7128-open-cluster-desc">
  <title id="ngc7128-open-cluster-title">NGC 7128 Open Cluster</title>
  <desc id="ngc7128-open-cluster-desc">Original Project Polaris vector artwork informed by official NASA imagery: compact Cygnus open cluster with small trapezoid-like bright-star group.</desc>
  <defs>
    <radialGradient id="ngc7128-open-cluster-glow" cx="50%" cy="48%" r="58%">
      <stop offset="0%" stop-color="#f3ead2" stop-opacity="0.9"/>
      <stop offset="52%" stop-color="#9ec9bf" stop-opacity="0.38"/>
      <stop offset="100%" stop-color="#1f5f60" stop-opacity="0"/>
    </radialGradient>
    <radialGradient id="ngc7128-open-cluster-ambient-edge-fade" cx="50%" cy="50%" r="72%">
      <stop offset="0%" stop-color="white" stop-opacity="1"/>
      <stop offset="64%" stop-color="white" stop-opacity="0.72"/>
      <stop offset="100%" stop-color="white" stop-opacity="0"/>
    </radialGradient>
    <mask id="ngc7128-open-cluster-ambient-vignette-mask" maskUnits="userSpaceOnUse" x="0" y="0" width="400" height="300">
      <rect width="400" height="300" fill="url(#ngc7128-open-cluster-ambient-edge-fade)"/>
    </mask>
    <clipPath id="ngc7128-open-cluster-disk"><circle cx="200" cy="150" r="62"/></clipPath>
  </defs>
  <g opacity="0.9" mask="url(#ngc7128-open-cluster-ambient-vignette-mask)">
    <circle cx="198" cy="30" r="0.55" fill="#f3ead2" opacity="0.35"/>
    <circle cx="292" cy="172" r="0.95" fill="#f3ead2" opacity="0.51"/>
    <circle cx="339" cy="243" r="1.25" fill="#d49a3a" opacity="0.59"/>
    <circle cx="22" cy="50" r="0.55" fill="#f3ead2" opacity="0.67"/>
    <circle cx="69" cy="121" r="0.75" fill="#f3ead2" opacity="0.35"/>
    <circle cx="116" cy="192" r="0.95" fill="#f3ead2" opacity="0.43"/>
    <circle cx="163" cy="263" r="1.25" fill="#f3ead2" opacity="0.51"/>
    <circle cx="210" cy="70" r="0.55" fill="#f3ead2" opacity="0.59"/>
    <circle cx="304" cy="212" r="0.95" fill="#f3ead2" opacity="0.35"/>
    <circle cx="351" cy="19" r="1.25" fill="#f3ead2" opacity="0.43"/>
    <circle cx="34" cy="90" r="0.55" fill="#f3ead2" opacity="0.51"/>
    <circle cx="81" cy="161" r="0.75" fill="#f3ead2" opacity="0.59"/>
    <circle cx="128" cy="232" r="0.95" fill="#f3ead2" opacity="0.67"/>
    <circle cx="175" cy="39" r="1.25" fill="#f3ead2" opacity="0.35"/>
    <circle cx="222" cy="110" r="0.55" fill="#f3ead2" opacity="0.43"/>
    <circle cx="316" cy="252" r="0.95" fill="#f3ead2" opacity="0.59"/>
    <circle cx="363" cy="59" r="1.25" fill="#d49a3a" opacity="0.67"/>
    <circle cx="46" cy="130" r="0.55" fill="#f3ead2" opacity="0.35"/>
    <circle cx="93" cy="201" r="0.75" fill="#f3ead2" opacity="0.43"/>
    <circle cx="140" cy="272" r="0.95" fill="#f3ead2" opacity="0.51"/>
    <circle cx="234" cy="150" r="0.55" fill="#f3ead2" opacity="0.67"/>
    <circle cx="281" cy="221" r="0.75" fill="#f3ead2" opacity="0.35"/>
    <circle cx="328" cy="28" r="0.95" fill="#f3ead2" opacity="0.43"/>
    <circle cx="375" cy="99" r="1.25" fill="#f3ead2" opacity="0.51"/>
    <circle cx="58" cy="170" r="0.55" fill="#f3ead2" opacity="0.59"/>
    <circle cx="105" cy="241" r="0.75" fill="#f3ead2" opacity="0.67"/>
    <circle cx="152" cy="48" r="0.95" fill="#f3ead2" opacity="0.35"/>
    <circle cx="246" cy="190" r="0.55" fill="#f3ead2" opacity="0.51"/>
    <circle cx="293" cy="261" r="0.75" fill="#f3ead2" opacity="0.59"/>
  </g>
  <g>
    <path d="M134 171 L168 127 L210 113 L250 155" stroke="#9ec9bf" stroke-width="2" opacity=".2" fill="none"/><circle cx="136" cy="171" r="2.8" fill="#f3ead2" opacity="0.78"/><circle cx="168" cy="127" r="3.1" fill="#f3ead2" opacity="0.84"/><circle cx="210" cy="113" r="2.7" fill="#f3ead2" opacity="0.76"/><circle cx="250" cy="155" r="2.5" fill="#f3ead2" opacity="0.72"/><circle cx="225" cy="190" r="2.2" fill="#f3ead2" opacity="0.66"/><circle cx="152" cy="200" r="1.8" fill="#f3ead2" opacity="0.58"/>
  </g>
</svg>
