<svg xmlns="http://www.w3.org/2000/svg" viewBox="0 0 400 300" role="img" aria-labelledby="ngc7552-galaxy-title ngc7552-galaxy-desc">
  <title id="ngc7552-galaxy-title">NGC 7552 Galaxy</title>
  <desc id="ngc7552-galaxy-desc">Original Project Polaris vector artwork informed by official NASA imagery: barred starburst spiral with bright circumnuclear ring.</desc>
  <defs>
    <radialGradient id="ngc7552-galaxy-glow" cx="50%" cy="48%" r="58%">
      <stop offset="0%" stop-color="#f3ead2" stop-opacity="0.9"/>
      <stop offset="52%" stop-color="#9ec9bf" stop-opacity="0.38"/>
      <stop offset="100%" stop-color="#1f5f60" stop-opacity="0"/>
    </radialGradient>
    <radialGradient id="ngc7552-galaxy-ambient-edge-fade" cx="50%" cy="50%" r="72%">
      <stop offset="0%" stop-color="white" stop-opacity="1"/>
      <stop offset="64%" stop-color="white" stop-opacity="0.72"/>
      <stop offset="100%" stop-color="white" stop-opacity="0"/>
    </radialGradient>
    <mask id="ngc7552-galaxy-ambient-vignette-mask" maskUnits="userSpaceOnUse" x="0" y="0" width="400" height="300">
      <rect width="400" height="300" fill="url(#ngc7552-galaxy-ambient-edge-fade)"/>
    </mask>
    <clipPath id="ngc7552-galaxy-disk"><circle cx="200" cy="150" r="62"/></clipPath>
  </defs>
  <g opacity="0.9" mask="url(#ngc7552-galaxy-ambient-vignette-mask)">
    <circle cx="313" cy="25" r="1.25" fill="#f3ead2" opacity="0.35"/>
    <circle cx="360" cy="96" r="0.55" fill="#f3ead2" opacity="0.43"/>
    <circle cx="43" cy="167" r="0.75" fill="#f3ead2" opacity="0.51"/>
    <circle cx="90" cy="238" r="0.95" fill="#d49a3a" opacity="0.59"/>
    <circle cx="137" cy="45" r="1.25" fill="#f3ead2" opacity="0.67"/>
    <circle cx="278" cy="258" r="0.95" fill="#f3ead2" opacity="0.51"/>
    <circle cx="325" cy="65" r="1.25" fill="#f3ead2" opacity="0.59"/>
    <circle cx="372" cy="136" r="0.55" fill="#f3ead2" opacity="0.67"/>
    <circle cx="55" cy="207" r="0.75" fill="#f3ead2" opacity="0.35"/>
    <circle cx="102" cy="278" r="0.95" fill="#f3ead2" opacity="0.43"/>
    <circle cx="149" cy="85" r="1.25" fill="#f3ead2" opacity="0.51"/>
    <circle cx="290" cy="34" r="0.95" fill="#f3ead2" opacity="0.35"/>
    <circle cx="337" cy="105" r="1.25" fill="#f3ead2" opacity="0.43"/>
    <circle cx="20" cy="176" r="0.55" fill="#f3ead2" opacity="0.51"/>
    <circle cx="67" cy="247" r="0.75" fill="#f3ead2" opacity="0.59"/>
    <circle cx="114" cy="54" r="0.95" fill="#d49a3a" opacity="0.67"/>
    <circle cx="161" cy="125" r="1.25" fill="#f3ead2" opacity="0.35"/>
    <circle cx="255" cy="267" r="0.75" fill="#f3ead2" opacity="0.51"/>
    <circle cx="302" cy="74" r="0.95" fill="#f3ead2" opacity="0.59"/>
    <circle cx="349" cy="145" r="1.25" fill="#f3ead2" opacity="0.67"/>
    <circle cx="32" cy="216" r="0.55" fill="#f3ead2" opacity="0.35"/>
    <circle cx="79" cy="23" r="0.75" fill="#f3ead2" opacity="0.43"/>
    <circle cx="173" cy="165" r="1.25" fill="#f3ead2" opacity="0.59"/>
    <circle cx="220" cy="236" r="0.55" fill="#f3ead2" opacity="0.67"/>
    <circle cx="267" cy="43" r="0.75" fill="#f3ead2" opacity="0.35"/>
    <circle cx="314" cy="114" r="0.95" fill="#f3ead2" opacity="0.43"/>
    <circle cx="361" cy="185" r="1.25" fill="#f3ead2" opacity="0.51"/>
    <circle cx="44" cy="256" r="0.55" fill="#f3ead2" opacity="0.59"/>
  </g>
  <g>
    <circle cx="199" cy="151" r="17" fill="#f3ead2" opacity=".82"/><path d="M141 155 L257 147" stroke="#d8caa7" stroke-width="8" opacity=".62" stroke-linecap="round"/><ellipse cx="199" cy="151" rx="75" ry="43" fill="none" stroke="#d49a3a" stroke-width="3" opacity=".28"/><path d="M107.6 130.2 A97 62 0 0 1 294.1 138.7" fill="none" stroke="#9ec9bf" stroke-width="5" stroke-linecap="round" opacity="0.52"/><path d="M295.5 168.7 A101 60 0 0 1 107.7 176.6" fill="none" stroke="#2f8f8a" stroke-width="5" stroke-linecap="round" opacity="0.48"/><path d="M139.1 152.7 A60 41 0 0 1 229.7 115.8" fill="none" stroke="#d8caa7" stroke-width="4" stroke-linecap="round" opacity="0.45"/><circle cx="241" cy="124" r="3" fill="#d49a3a" opacity="0.68"/><circle cx="161" cy="180" r="2.6" fill="#d49a3a" opacity="0.62"/><circle cx="222" cy="193" r="2.2" fill="#d49a3a" opacity="0.56"/>
  </g>
</svg>
