<svg xmlns="http://www.w3.org/2000/svg" viewBox="0 0 400 300" role="img" aria-labelledby="ugc2885-rubins-galaxy-title ugc2885-rubins-galaxy-desc">
  <title id="ugc2885-rubins-galaxy-title">UGC 2885 Rubin's Galaxy</title>
  <desc id="ugc2885-rubins-galaxy-desc">Original Project Polaris vector artwork informed by official NASA imagery: very large spiral with extended low-surface-brightness arms and compact core.</desc>
  <defs>
    <radialGradient id="ugc2885-rubins-galaxy-glow" cx="50%" cy="48%" r="58%">
      <stop offset="0%" stop-color="#f3ead2" stop-opacity="0.9"/>
      <stop offset="52%" stop-color="#9ec9bf" stop-opacity="0.38"/>
      <stop offset="100%" stop-color="#1f5f60" stop-opacity="0"/>
    </radialGradient>
    <radialGradient id="ugc2885-rubins-galaxy-ambient-edge-fade" cx="50%" cy="50%" r="72%">
      <stop offset="0%" stop-color="white" stop-opacity="1"/>
      <stop offset="64%" stop-color="white" stop-opacity="0.72"/>
      <stop offset="100%" stop-color="white" stop-opacity="0"/>
    </radialGradient>
    <mask id="ugc2885-rubins-galaxy-ambient-vignette-mask" maskUnits="userSpaceOnUse" x="0" y="0" width="400" height="300">
      <rect width="400" height="300" fill="url(#ugc2885-rubins-galaxy-ambient-edge-fade)"/>
    </mask>
    <clipPath id="ugc2885-rubins-galaxy-disk"><circle cx="200" cy="150" r="62"/></clipPath>
  </defs>
  <g opacity="0.9" mask="url(#ugc2885-rubins-galaxy-ambient-vignette-mask)">
    <circle cx="259" cy="51" r="0.75" fill="#f3ead2" opacity="0.35"/>
    <circle cx="306" cy="122" r="0.95" fill="#f3ead2" opacity="0.43"/>
    <circle cx="353" cy="193" r="1.25" fill="#f3ead2" opacity="0.51"/>
    <circle cx="36" cy="264" r="0.55" fill="#d49a3a" opacity="0.59"/>
    <circle cx="83" cy="71" r="0.75" fill="#f3ead2" opacity="0.67"/>
    <circle cx="224" cy="20" r="0.55" fill="#f3ead2" opacity="0.51"/>
    <circle cx="271" cy="91" r="0.75" fill="#f3ead2" opacity="0.59"/>
    <circle cx="318" cy="162" r="0.95" fill="#f3ead2" opacity="0.67"/>
    <circle cx="365" cy="233" r="1.25" fill="#f3ead2" opacity="0.35"/>
    <circle cx="48" cy="40" r="0.55" fill="#f3ead2" opacity="0.43"/>
    <circle cx="95" cy="111" r="0.75" fill="#f3ead2" opacity="0.51"/>
    <circle cx="189" cy="253" r="1.25" fill="#f3ead2" opacity="0.67"/>
    <circle cx="236" cy="60" r="0.55" fill="#f3ead2" opacity="0.35"/>
    <circle cx="283" cy="131" r="0.75" fill="#f3ead2" opacity="0.43"/>
    <circle cx="330" cy="202" r="0.95" fill="#f3ead2" opacity="0.51"/>
    <circle cx="377" cy="273" r="1.25" fill="#f3ead2" opacity="0.59"/>
    <circle cx="60" cy="80" r="0.55" fill="#d49a3a" opacity="0.67"/>
    <circle cx="107" cy="151" r="0.75" fill="#f3ead2" opacity="0.35"/>
    <circle cx="201" cy="29" r="1.25" fill="#f3ead2" opacity="0.51"/>
    <circle cx="295" cy="171" r="0.75" fill="#f3ead2" opacity="0.67"/>
    <circle cx="342" cy="242" r="0.95" fill="#f3ead2" opacity="0.35"/>
    <circle cx="25" cy="49" r="1.25" fill="#f3ead2" opacity="0.43"/>
    <circle cx="72" cy="120" r="0.55" fill="#f3ead2" opacity="0.51"/>
    <circle cx="119" cy="191" r="0.75" fill="#f3ead2" opacity="0.59"/>
    <circle cx="166" cy="262" r="0.95" fill="#f3ead2" opacity="0.67"/>
    <circle cx="307" cy="211" r="0.75" fill="#f3ead2" opacity="0.51"/>
    <circle cx="354" cy="18" r="0.95" fill="#f3ead2" opacity="0.59"/>
  </g>
  <g>
    <circle cx="193" cy="151" r="13" fill="#f3ead2" opacity=".82"/><path d="M105.4 131.2 A93 59 0 0 1 284.1 139.3" fill="none" stroke="#9ec9bf" stroke-width="5" stroke-linecap="round" opacity="0.52"/><path d="M285.7 167.5 A97 56 0 0 1 105.3 174.9" fill="none" stroke="#2f8f8a" stroke-width="5" stroke-linecap="round" opacity="0.48"/><path d="M137.0 152.5 A56 37 0 0 1 221.7 119.2" fill="none" stroke="#d8caa7" stroke-width="4" stroke-linecap="round" opacity="0.45"/><circle cx="235" cy="124" r="3" fill="#d49a3a" opacity="0.68"/><circle cx="155" cy="180" r="2.6" fill="#d49a3a" opacity="0.62"/><circle cx="216" cy="193" r="2.2" fill="#d49a3a" opacity="0.56"/>
  </g>
</svg>
